<?xml version="1.0" encoding="utf-8"?>
<!-- Generator: Adobe Illustrator 15.1.0, SVG Export Plug-In . SVG Version: 6.00 Build 0)  -->
<!DOCTYPE svg PUBLIC "-//W3C//DTD SVG 1.1//EN" "http://www.w3.org/Graphics/SVG/1.1/DTD/svg11.dtd">
<svg version="1.1" id="Layer_1" xmlns="http://www.w3.org/2000/svg" xmlns:xlink="http://www.w3.org/1999/xlink" x="0px" y="0px"
	 width="1000px" height="1000px" viewBox="0 0 1000 1000" enable-background="new 0 0 1000 1000" xml:space="preserve">
<g>
	<path fill="none" stroke="#000000" stroke-width="25" stroke-miterlimit="10" d="M781.104,500
		c0,169.48-137.399,306.88-306.88,306.88c-9.279,0-18.46-0.41-27.529-1.22C290.115,791.74,167.345,660.2,167.345,500
		c0-169.479,137.399-306.88,306.88-306.88c160.51,0,292.24,123.24,305.73,280.25C780.715,482.149,781.104,491.03,781.104,500z"/>
	<g>
		<g>
			<g>
				<polygon points="417.158,677 318.03,677 318.03,577.868 347.316,577.868 347.316,647.713 417.158,647.713 				"/>
			</g>
			<g>
				<g>
					<polygon points="630.42,677 531.289,677 531.289,647.713 601.133,647.713 601.133,577.868 630.42,577.868 					"/>
				</g>
				<g>
					<polygon points="630.42,422.132 601.133,422.132 601.133,352.287 531.289,352.287 531.289,323 630.42,323 					"/>
				</g>
				<g>
					<polygon points="347.316,422.132 318.029,422.132 318.029,323 417.16,323 417.16,352.287 347.316,352.287 					"/>
				</g>
			</g>
		</g>
		<rect x="389.878" y="405.451" width="168.694" height="12.678"/>
		<rect x="389.878" y="464.258" width="168.694" height="12.678"/>
		<g>
			<polygon points="531.481,599.521 556.733,591.381 532.25,572.979 			"/>
			<g>
				<path d="M623.679,502.309l5.584-7.428c2.998-3.989-0.052-11.343-6.813-16.424c-6.76-5.082-14.672-5.967-17.67-1.979
					l-5.583,7.429L623.679,502.309z"/>
				
					<rect x="528.137" y="522.33" transform="matrix(0.6008 -0.7994 0.7994 0.6008 -199.0733 676.627)" width="99.656" height="30.628"/>
			</g>
		</g>
		<rect x="389.878" y="581.872" width="79.347" height="12.676"/>
		<rect x="389.878" y="523.063" width="136.411" height="12.679"/>
	</g>
</g>
</svg>
