<?xml version="1.0" encoding="utf-8"?>
<!-- Generator: Adobe Illustrator 15.1.0, SVG Export Plug-In . SVG Version: 6.00 Build 0)  -->
<!DOCTYPE svg PUBLIC "-//W3C//DTD SVG 1.1//EN" "http://www.w3.org/Graphics/SVG/1.1/DTD/svg11.dtd">
<svg version="1.1" id="Layer_1" xmlns="http://www.w3.org/2000/svg" xmlns:xlink="http://www.w3.org/1999/xlink" x="0px" y="0px"
	 width="1000px" height="1000px" viewBox="0 0 1000 1000" enable-background="new 0 0 1000 1000" xml:space="preserve">
<rect fill="#231F20" width="1000" height="1000"/>
<g>
	<g>
		<path fill="#FFFFFF" d="M500,218.12c71.026,0,138.875,26.502,191.048,74.623c51.876,47.849,83.759,112.756,89.775,182.782
			c0.701,8.099,1.057,16.333,1.057,24.475c0,38.063-7.45,74.975-22.142,109.711c-14.196,33.563-34.525,63.711-60.421,89.606
			s-56.044,46.225-89.606,60.421C574.975,774.431,538.063,781.88,500,781.88c-8.461,0-16.976-0.377-25.315-1.122
			c-69.828-6.207-134.537-38.169-182.206-89.997C244.527,638.628,218.12,570.881,218.12,500c0-38.063,7.45-74.975,22.142-109.71
			c14.196-33.563,34.525-63.711,60.421-89.607c25.896-25.896,56.044-46.225,89.606-60.421
			C425.025,225.569,461.937,218.12,500,218.12 M500,193.12c-169.48,0-306.88,137.4-306.88,306.88
			c0,160.2,122.771,291.74,279.351,305.66c9.069,0.81,18.25,1.22,27.529,1.22c169.48,0,306.88-137.399,306.88-306.88
			c0-8.97-0.39-17.851-1.149-26.63C792.24,316.36,660.51,193.12,500,193.12L500,193.12z"/>
	</g>
	<g>
		<g>
			<g>
				<g>
					<polygon fill="#FFFFFF" points="356.306,664.5 356.306,590.368 360.592,590.368 360.592,660.213 430.434,660.213 
						430.434,664.5 					"/>
					<polygon fill="#FFFFFF" points="373.092,577.868 343.806,577.868 343.806,677 442.934,677 442.934,647.713 373.092,647.713 
						373.092,577.868 					"/>
				</g>
			</g>
			<g>
				<g>
					<g>
						<polygon fill="#FFFFFF" points="569.564,664.5 569.564,660.213 639.408,660.213 639.408,590.368 643.695,590.368 
							643.695,664.5 						"/>
						<polygon fill="#FFFFFF" points="656.195,577.868 626.908,577.868 626.908,647.713 557.064,647.713 557.064,677 656.195,677 
							656.195,577.868 						"/>
					</g>
				</g>
				<g>
					<g>
						<polygon fill="#FFFFFF" points="639.408,409.632 639.408,339.787 569.564,339.787 569.564,335.5 643.695,335.5 
							643.695,409.632 						"/>
						<polygon fill="#FFFFFF" points="656.195,323 557.064,323 557.064,352.287 626.908,352.287 626.908,422.132 656.195,422.132 
							656.195,323 						"/>
					</g>
				</g>
				<g>
					<g>
						<polygon fill="#FFFFFF" points="356.305,409.632 356.305,335.5 430.436,335.5 430.436,339.787 360.592,339.787 
							360.592,409.632 						"/>
						<polygon fill="#FFFFFF" points="442.936,323 343.805,323 343.805,422.132 373.092,422.132 373.092,352.287 442.936,352.287 
							442.936,323 						"/>
					</g>
				</g>
			</g>
		</g>
		<g>
			<rect x="415.653" y="405.451" fill="#FFFFFF" width="168.694" height="12.678"/>
			<polygon fill="#FFFFFF" points="584.348,405.451 415.653,405.451 415.653,418.129 584.348,418.129 584.348,405.451 			"/>
		</g>
		<g>
			<rect x="415.653" y="464.258" fill="#FFFFFF" width="168.694" height="12.678"/>
			<polygon fill="#FFFFFF" points="584.348,464.258 415.653,464.258 415.653,476.936 584.348,476.936 584.348,464.258 			"/>
		</g>
		<g>
			<g>
				<polygon fill="#FFFFFF" points="557.257,599.521 582.509,591.381 558.025,572.979 				"/>
				<polygon fill="#FFFFFF" points="558.025,572.979 557.257,599.521 582.509,591.381 558.025,572.979 				"/>
			</g>
			<g>
				<g>
					<path fill="#FFFFFF" d="M649.454,502.309l5.584-7.428c2.998-3.989-0.052-11.343-6.813-16.424
						c-6.76-5.082-14.672-5.967-17.67-1.979l-5.583,7.429L649.454,502.309z"/>
					<path fill="#FFFFFF" d="M636.512,473.982c-2.556,0-4.692,0.814-5.956,2.496l-5.583,7.429l24.481,18.401l5.584-7.428
						c2.998-3.989-0.052-11.343-6.813-16.424C644.315,475.518,640.02,473.982,636.512,473.982L636.512,473.982z"/>
				</g>
				<g>
					
						<rect x="566.412" y="534.83" transform="matrix(-0.6008 0.7994 -0.7994 -0.6008 1396.2637 378.051)" fill="#FFFFFF" width="74.657" height="5.628"/>
					<polygon fill="#FFFFFF" points="621.437,488.611 561.561,568.274 586.044,586.677 645.92,507.013 621.437,488.611 					"/>
				</g>
			</g>
		</g>
		<g>
			<rect x="415.653" y="581.872" fill="#FFFFFF" width="79.347" height="12.676"/>
			<polygon fill="#FFFFFF" points="495,581.872 415.653,581.872 415.653,594.548 495,594.548 495,581.872 			"/>
		</g>
		<g>
			<rect x="415.653" y="523.063" fill="#FFFFFF" width="136.411" height="12.679"/>
			<polygon fill="#FFFFFF" points="552.064,523.063 415.653,523.063 415.653,535.742 552.064,535.742 552.064,523.063 			"/>
		</g>
	</g>
</g>
</svg>
