<?xml version="1.0" encoding="utf-8"?>
<!-- Generator: Adobe Illustrator 15.1.0, SVG Export Plug-In . SVG Version: 6.00 Build 0)  -->
<!DOCTYPE svg PUBLIC "-//W3C//DTD SVG 1.1//EN" "http://www.w3.org/Graphics/SVG/1.1/DTD/svg11.dtd">
<svg version="1.1" id="Layer_1" xmlns="http://www.w3.org/2000/svg" xmlns:xlink="http://www.w3.org/1999/xlink" x="0px" y="0px"
	 width="1000px" height="1000px" viewBox="0 0 1000 1000" enable-background="new 0 0 1000 1000" xml:space="preserve">
<g>
	<path d="M806.88,500c0,169.48-137.399,306.88-306.88,306.88c-9.279,0-18.46-0.41-27.529-1.22
		C315.891,791.74,193.12,660.2,193.12,500c0-169.479,137.399-306.88,306.88-306.88c160.51,0,292.24,123.24,305.73,280.25
		C806.49,482.149,806.88,491.03,806.88,500z"/>
	<g>
		<g>
			<g>
				<polygon fill="#FFFFFF" points="442.934,677 343.806,677 343.806,577.868 373.092,577.868 373.092,647.713 442.934,647.713 				
					"/>
			</g>
			<g>
				<g>
					<polygon fill="#FFFFFF" points="656.195,677 557.064,677 557.064,647.713 626.908,647.713 626.908,577.868 656.195,577.868 
											"/>
				</g>
				<g>
					<polygon fill="#FFFFFF" points="656.195,422.132 626.908,422.132 626.908,352.287 557.064,352.287 557.064,323 656.195,323 
											"/>
				</g>
				<g>
					<polygon fill="#FFFFFF" points="373.092,422.132 343.805,422.132 343.805,323 442.936,323 442.936,352.287 373.092,352.287 
											"/>
				</g>
			</g>
		</g>
		<rect x="415.653" y="405.451" fill="#FFFFFF" width="168.694" height="12.678"/>
		<rect x="415.653" y="464.258" fill="#FFFFFF" width="168.694" height="12.678"/>
		<g>
			<polygon fill="#FFFFFF" points="557.257,599.521 582.509,591.381 558.025,572.979 			"/>
			<g>
				<path fill="#FFFFFF" d="M649.454,502.309l5.584-7.428c2.998-3.989-0.052-11.343-6.813-16.424
					c-6.76-5.082-14.672-5.967-17.67-1.979l-5.583,7.429L649.454,502.309z"/>
				
					<rect x="553.912" y="522.33" transform="matrix(0.6008 -0.7994 0.7994 0.6008 -188.7844 697.2313)" fill="#FFFFFF" width="99.656" height="30.628"/>
			</g>
		</g>
		<rect x="415.653" y="581.872" fill="#FFFFFF" width="79.347" height="12.676"/>
		<rect x="415.653" y="523.063" fill="#FFFFFF" width="136.411" height="12.679"/>
	</g>
</g>
</svg>
