<?xml version="1.0" encoding="utf-8"?>
<!-- Generator: Adobe Illustrator 15.1.0, SVG Export Plug-In . SVG Version: 6.00 Build 0)  -->
<!DOCTYPE svg PUBLIC "-//W3C//DTD SVG 1.1//EN" "http://www.w3.org/Graphics/SVG/1.1/DTD/svg11.dtd">
<svg version="1.1" id="Layer_1" xmlns="http://www.w3.org/2000/svg" xmlns:xlink="http://www.w3.org/1999/xlink" x="0px" y="0px"
	 width="1000px" height="612.713px" viewBox="0 0 1000 612.713" enable-background="new 0 0 1000 612.713" xml:space="preserve">
<rect fill="#008000" width="1000" height="612.713"/>
<g>
	<g>
		<g>
			<g>
				<polygon fill="#FFFFFF" points="462.743,380.472 398.026,380.472 398.026,315.754 417.146,315.754 417.146,361.353 
					462.743,361.353 				"/>
			</g>
			<g>
				<g>
					<polygon fill="#FFFFFF" points="601.974,380.472 537.255,380.472 537.255,361.353 582.854,361.353 582.854,315.754 
						601.974,315.754 					"/>
				</g>
				<g>
					<polygon fill="#FFFFFF" points="601.974,214.078 582.854,214.078 582.854,168.479 537.255,168.479 537.255,149.358 
						601.974,149.358 					"/>
				</g>
				<g>
					<polygon fill="#FFFFFF" points="417.146,214.078 398.026,214.078 398.026,149.358 462.743,149.358 462.743,168.479 
						417.146,168.479 					"/>
				</g>
			</g>
		</g>
		<rect x="444.933" y="203.188" fill="#FFFFFF" width="110.133" height="8.277"/>
		<rect x="444.933" y="241.581" fill="#FFFFFF" width="110.133" height="8.277"/>
		<g>
			<polygon fill="#FFFFFF" points="537.38,329.891 553.866,324.576 537.882,312.562 			"/>
			<g>
				<path fill="#FFFFFF" d="M597.573,266.423l3.645-4.849c1.957-2.604-0.033-7.407-4.449-10.724
					c-4.41-3.316-9.578-3.896-11.533-1.291l-3.646,4.851L597.573,266.423z"/>
				
					<rect x="535.197" y="279.495" transform="matrix(0.6008 -0.7994 0.7994 0.6008 -4.7925 569.388)" fill="#FFFFFF" width="65.06" height="19.996"/>
			</g>
		</g>
		<rect x="444.933" y="318.368" fill="#FFFFFF" width="51.803" height="8.274"/>
		<rect x="444.933" y="279.973" fill="#FFFFFF" width="89.059" height="8.278"/>
	</g>
	<g>
		<path fill="#FFFFFF" d="M319.812,434.863c0,12.195-7.412,18.661-16.454,18.661c-9.355,0-15.927-7.254-15.927-17.978
			c0-11.249,6.991-18.608,16.453-18.608C313.557,416.938,319.812,424.351,319.812,434.863z M292.319,435.441
			c0,7.569,4.101,14.351,11.302,14.351c7.254,0,11.354-6.676,11.354-14.719c0-7.044-3.68-14.402-11.302-14.402
			C296.104,420.671,292.319,427.662,292.319,435.441z"/>
		<path fill="#FFFFFF" d="M325.598,435.81c0-3.259-0.105-5.888-0.211-8.306h4.152l0.211,4.363h0.105
			c1.893-3.102,4.889-4.941,9.041-4.941c6.15,0,10.775,5.204,10.775,12.932c0,9.146-5.571,13.667-11.564,13.667
			c-3.363,0-6.308-1.472-7.832-3.995h-0.105v13.825h-4.572V435.81z M330.17,442.591c0,0.684,0.105,1.314,0.211,1.893
			c0.841,3.206,3.627,5.414,6.938,5.414c4.889,0,7.728-3.995,7.728-9.83c0-5.099-2.682-9.462-7.57-9.462
			c-3.153,0-6.098,2.261-6.99,5.729c-0.158,0.578-0.316,1.262-0.316,1.893V442.591z"/>
		<path fill="#FFFFFF" d="M358.085,441.066c0.104,6.255,4.101,8.831,8.726,8.831c3.313,0,5.31-0.578,7.045-1.314l0.788,3.312
			c-1.63,0.736-4.415,1.577-8.464,1.577c-7.832,0-12.51-5.151-12.51-12.826s4.52-13.72,11.932-13.72
			c8.307,0,10.514,7.307,10.514,11.985c0,0.946-0.105,1.682-0.158,2.155H358.085z M371.646,437.755
			c0.053-2.944-1.209-7.518-6.412-7.518c-4.679,0-6.729,4.311-7.097,7.518H371.646z"/>
		<path fill="#FFFFFF" d="M381.848,434.391c0-2.629-0.053-4.784-0.211-6.887h4.101l0.263,4.205h0.105
			c1.262-2.418,4.205-4.783,8.41-4.783c3.522,0,8.989,2.103,8.989,10.829v15.191h-4.626V438.28c0-4.101-1.524-7.517-5.887-7.517
			c-3.049,0-5.415,2.154-6.203,4.73c-0.211,0.578-0.315,1.367-0.315,2.155v15.297h-4.626V434.391z"/>
		<path fill="#FFFFFF" d="M422.326,452.946v-35.43h4.994l11.354,17.925c2.628,4.153,4.679,7.885,6.36,11.513l0.105-0.053
			c-0.421-4.731-0.525-9.042-0.525-14.562v-14.823h4.311v35.43h-4.627l-11.248-17.978c-2.471-3.942-4.837-7.99-6.624-11.828
			l-0.157,0.053c0.262,4.469,0.367,8.727,0.367,14.614v15.139H422.326z"/>
		<path fill="#FFFFFF" d="M479.785,440.015c0,9.41-6.519,13.51-12.669,13.51c-6.886,0-12.195-5.046-12.195-13.089
			c0-8.516,5.572-13.51,12.616-13.51C474.844,426.926,479.785,432.235,479.785,440.015z M459.6,440.277
			c0,5.572,3.206,9.777,7.727,9.777c4.416,0,7.728-4.152,7.728-9.882c0-4.311-2.155-9.777-7.622-9.777S459.6,435.441,459.6,440.277z
			"/>
		<path fill="#FFFFFF" d="M491.193,420.197v7.307h6.624v3.522h-6.624v13.72c0,3.153,0.895,4.941,3.471,4.941
			c1.209,0,2.102-0.158,2.68-0.315l0.211,3.469c-0.894,0.368-2.313,0.631-4.1,0.631c-2.156,0-3.891-0.683-4.994-1.944
			c-1.314-1.367-1.787-3.628-1.787-6.624v-13.877h-3.943v-3.522h3.943v-6.098L491.193,420.197z"/>
		<path fill="#FFFFFF" d="M505.283,441.066c0.105,6.255,4.101,8.831,8.726,8.831c3.313,0,5.31-0.578,7.044-1.314l0.789,3.312
			c-1.63,0.736-4.416,1.577-8.463,1.577c-7.833,0-12.512-5.151-12.512-12.826s4.521-13.72,11.933-13.72
			c8.306,0,10.514,7.307,10.514,11.985c0,0.946-0.105,1.682-0.157,2.155H505.283z M518.846,437.755
			c0.053-2.944-1.209-7.518-6.413-7.518c-4.679,0-6.729,4.311-7.097,7.518H518.846z"/>
		<path fill="#FFFFFF" d="M539.717,447.374c2.05,1.262,5.046,2.313,8.2,2.313c4.679,0,7.412-2.471,7.412-6.046
			c0-3.312-1.893-5.204-6.676-7.044c-5.782-2.05-9.357-5.046-9.357-10.04c0-5.52,4.573-9.619,11.46-9.619
			c3.627,0,6.255,0.841,7.832,1.734l-1.262,3.732c-1.156-0.631-3.521-1.683-6.729-1.683c-4.836,0-6.676,2.892-6.676,5.31
			c0,3.312,2.155,4.941,7.044,6.834c5.993,2.313,9.042,5.204,9.042,10.408c0,5.467-4.048,10.197-12.406,10.197
			c-3.417,0-7.148-0.998-9.041-2.26L539.717,447.374z"/>
		<path fill="#FFFFFF" d="M584.559,452c-1.209,0.631-3.89,1.472-7.307,1.472c-7.675,0-12.669-5.204-12.669-12.983
			c0-7.833,5.362-13.51,13.668-13.51c2.733,0,5.151,0.684,6.413,1.314l-1.052,3.574c-1.104-0.631-2.838-1.209-5.361-1.209
			c-5.835,0-8.989,4.311-8.989,9.619c0,5.888,3.785,9.515,8.831,9.515c2.629,0,4.363-0.683,5.678-1.262L584.559,452z"/>
		<path fill="#FFFFFF" d="M604.063,452.946l-0.367-3.207h-0.158c-1.419,1.998-4.152,3.785-7.779,3.785
			c-5.152,0-7.78-3.627-7.78-7.307c0-6.15,5.467-9.515,15.297-9.462v-0.525c0-2.103-0.578-5.888-5.782-5.888
			c-2.365,0-4.836,0.736-6.623,1.893l-1.052-3.049c2.103-1.367,5.151-2.261,8.358-2.261c7.779,0,9.672,5.31,9.672,10.408v9.515
			c0,2.208,0.105,4.363,0.421,6.098H604.063z M603.38,439.962c-5.047-0.104-10.776,0.789-10.776,5.73
			c0,2.996,1.997,4.415,4.363,4.415c3.312,0,5.414-2.103,6.149-4.258c0.158-0.473,0.264-0.999,0.264-1.472V439.962z"/>
		<path fill="#FFFFFF" d="M615.313,434.391c0-2.629-0.052-4.784-0.21-6.887h4.101l0.263,4.205h0.105
			c1.261-2.418,4.205-4.783,8.41-4.783c3.522,0,8.989,2.103,8.989,10.829v15.191h-4.626V438.28c0-4.101-1.524-7.517-5.888-7.517
			c-3.049,0-5.414,2.154-6.203,4.73c-0.21,0.578-0.315,1.367-0.315,2.155v15.297h-4.626V434.391z"/>
		<path fill="#FFFFFF" d="M644.49,434.391c0-2.629-0.052-4.784-0.21-6.887h4.101l0.263,4.205h0.105
			c1.261-2.418,4.205-4.783,8.41-4.783c3.522,0,8.989,2.103,8.989,10.829v15.191h-4.626V438.28c0-4.101-1.524-7.517-5.888-7.517
			c-3.049,0-5.414,2.154-6.203,4.73c-0.21,0.578-0.315,1.367-0.315,2.155v15.297h-4.626V434.391z"/>
		<path fill="#FFFFFF" d="M676.244,441.066c0.105,6.255,4.101,8.831,8.726,8.831c3.313,0,5.31-0.578,7.044-1.314l0.789,3.312
			c-1.63,0.736-4.416,1.577-8.463,1.577c-7.833,0-12.512-5.151-12.512-12.826s4.521-13.72,11.933-13.72
			c8.306,0,10.514,7.307,10.514,11.985c0,0.946-0.105,1.682-0.157,2.155H676.244z M689.807,437.755
			c0.053-2.944-1.209-7.518-6.413-7.518c-4.679,0-6.729,4.311-7.097,7.518H689.807z"/>
		<path fill="#FFFFFF" d="M700.006,435.441c0-2.996-0.052-5.572-0.21-7.938h4.048l0.157,4.994h0.211
			c1.156-3.417,3.942-5.572,7.044-5.572c0.525,0,0.894,0.053,1.313,0.158v4.362c-0.473-0.104-0.946-0.157-1.576-0.157
			c-3.26,0-5.572,2.471-6.203,5.939c-0.105,0.631-0.211,1.367-0.211,2.155v13.563h-4.573V435.441z"/>
	</g>
</g>
</svg>
