<?xml version="1.0" encoding="utf-8"?>
<!-- Generator: Adobe Illustrator 15.1.0, SVG Export Plug-In . SVG Version: 6.00 Build 0)  -->
<!DOCTYPE svg PUBLIC "-//W3C//DTD SVG 1.1//EN" "http://www.w3.org/Graphics/SVG/1.1/DTD/svg11.dtd">
<svg version="1.1" id="Layer_1" xmlns="http://www.w3.org/2000/svg" xmlns:xlink="http://www.w3.org/1999/xlink" x="0px" y="0px"
	 width="1000px" height="612.713px" viewBox="0 0 1000 612.713" enable-background="new 0 0 1000 612.713" xml:space="preserve">
<g>
	<path d="M975,25v562.713H25V25H975 M1000,0H0v612.713h1000V0L1000,0z"/>
</g>
<g>
	<g>
		<g>
			<g>
				<polygon points="174.447,378.026 134.309,378.026 134.309,337.887 146.166,337.887 146.166,366.168 174.447,366.168 				"/>
			</g>
			<g>
				<g>
					<polygon points="260.801,378.026 220.66,378.026 220.66,366.168 248.941,366.168 248.941,337.887 260.801,337.887 					"/>
				</g>
				<g>
					<polygon points="260.801,274.826 248.941,274.826 248.941,246.545 220.66,246.545 220.66,234.687 260.801,234.687 					"/>
				</g>
				<g>
					<polygon points="146.166,274.826 134.309,274.826 134.309,234.687 174.447,234.687 174.447,246.545 146.166,246.545 					"/>
				</g>
			</g>
		</g>
		<rect x="163.4" y="268.072" width="68.307" height="5.134"/>
		<rect x="163.4" y="291.884" width="68.307" height="5.134"/>
		<g>
			<polygon points="220.738,346.654 230.963,343.358 221.049,335.907 			"/>
			<g>
				<path d="M258.07,307.291l2.262-3.007c1.213-1.615-0.021-4.594-2.76-6.651c-2.736-2.057-5.941-2.416-7.154-0.801l-2.262,3.009
					L258.07,307.291z"/>
				
					<rect x="219.384" y="315.398" transform="matrix(0.6008 -0.7994 0.7994 0.6008 -161.4535 319.863)" width="40.353" height="12.402"/>
			</g>
		</g>
		<rect x="163.4" y="339.508" width="32.129" height="5.133"/>
		<rect x="163.4" y="315.695" width="55.236" height="5.134"/>
	</g>
	<g>
		<path d="M346.422,308.71c0,16.125-9.799,24.674-21.754,24.674c-12.371,0-21.061-9.592-21.061-23.77
			c0-14.875,9.244-24.605,21.756-24.605C338.152,285.009,346.422,294.81,346.422,308.71z M310.072,309.476
			c0,10.008,5.422,18.975,14.943,18.975c9.592,0,15.012-8.828,15.012-19.461c0-9.314-4.865-19.045-14.941-19.045
			C315.076,289.944,310.072,299.188,310.072,309.476z"/>
		<path d="M354.068,309.962c0-4.311-0.139-7.785-0.277-10.982h5.49l0.279,5.77h0.139c2.502-4.102,6.463-6.533,11.955-6.533
			c8.131,0,14.248,6.881,14.248,17.098c0,12.094-7.367,18.07-15.291,18.07c-4.449,0-8.34-1.945-10.355-5.281h-0.141v18.279h-6.047
			V309.962z M360.115,318.927c0,0.904,0.141,1.738,0.279,2.502c1.111,4.24,4.795,7.16,9.174,7.16
			c6.465,0,10.217-5.283,10.217-12.998c0-6.742-3.545-12.51-10.008-12.51c-4.17,0-8.063,2.988-9.244,7.576
			c-0.209,0.764-0.418,1.668-0.418,2.502V318.927z"/>
		<path d="M397.023,316.911c0.139,8.271,5.42,11.678,11.537,11.678c4.379,0,7.02-0.766,9.313-1.738l1.043,4.379
			c-2.154,0.973-5.838,2.086-11.189,2.086c-10.355,0-16.543-6.813-16.543-16.959c0-10.148,5.979-18.141,15.777-18.141
			c10.982,0,13.902,9.66,13.902,15.846c0,1.252-0.141,2.225-0.209,2.85H397.023z M414.955,312.532c0.068-3.891-1.6-9.938-8.48-9.938
			c-6.186,0-8.896,5.699-9.383,9.938H414.955z"/>
		<path d="M428.439,308.085c0-3.475-0.07-6.324-0.279-9.105h5.422l0.348,5.561h0.139c1.668-3.197,5.561-6.324,11.121-6.324
			c4.656,0,11.885,2.779,11.885,14.316v20.088h-6.117v-19.393c0-5.42-2.016-9.939-7.783-9.939c-4.031,0-7.158,2.852-8.201,6.256
			c-0.279,0.766-0.418,1.807-0.418,2.85v20.227h-6.115V308.085z"/>
		<path d="M481.957,332.62v-46.846h6.604l15.012,23.701c3.475,5.49,6.186,10.426,8.41,15.221l0.139-0.07
			c-0.555-6.254-0.695-11.953-0.695-19.252v-19.6h5.699v46.846h-6.115l-14.875-23.771c-3.266-5.213-6.393-10.564-8.756-15.637
			l-0.209,0.068c0.348,5.908,0.486,11.537,0.486,19.322v20.018H481.957z"/>
		<path d="M557.926,315.522c0,12.439-8.619,17.861-16.752,17.861c-9.104,0-16.125-6.672-16.125-17.307
			c0-11.26,7.367-17.861,16.682-17.861C551.391,298.216,557.926,305.235,557.926,315.522z M531.236,315.87
			c0,7.367,4.238,12.928,10.217,12.928c5.838,0,10.217-5.492,10.217-13.068c0-5.699-2.85-12.928-10.078-12.928
			S531.236,309.476,531.236,315.87z"/>
		<path d="M573.008,289.319v9.66h8.758v4.656h-8.758v18.141c0,4.172,1.182,6.533,4.588,6.533c1.598,0,2.779-0.207,3.545-0.416
			l0.277,4.588c-1.182,0.486-3.059,0.834-5.422,0.834c-2.85,0-5.143-0.904-6.602-2.572c-1.738-1.807-2.363-4.795-2.363-8.758v-18.35
			h-5.213v-4.656h5.213v-8.063L573.008,289.319z"/>
		<path d="M591.635,316.911c0.141,8.271,5.422,11.678,11.539,11.678c4.379,0,7.02-0.766,9.313-1.738l1.043,4.379
			c-2.154,0.973-5.838,2.086-11.189,2.086c-10.357,0-16.543-6.813-16.543-16.959c0-10.148,5.979-18.141,15.777-18.141
			c10.982,0,13.9,9.66,13.9,15.846c0,1.252-0.139,2.225-0.207,2.85H591.635z M609.568,312.532c0.068-3.891-1.6-9.938-8.48-9.938
			c-6.186,0-8.896,5.699-9.383,9.938H609.568z"/>
		<path d="M637.16,325.253c2.711,1.668,6.672,3.057,10.844,3.057c6.186,0,9.799-3.266,9.799-7.992c0-4.379-2.502-6.881-8.826-9.313
			c-7.646-2.711-12.373-6.674-12.373-13.275c0-7.299,6.047-12.721,15.152-12.721c4.797,0,8.271,1.113,10.355,2.295l-1.668,4.934
			c-1.527-0.834-4.656-2.223-8.896-2.223c-6.393,0-8.826,3.822-8.826,7.02c0,4.379,2.85,6.533,9.314,9.035
			c7.922,3.059,11.953,6.881,11.953,13.762c0,7.229-5.352,13.484-16.402,13.484c-4.518,0-9.453-1.322-11.955-2.99L637.16,325.253z"
			/>
		<path d="M696.447,331.368c-1.598,0.834-5.143,1.947-9.66,1.947c-10.148,0-16.75-6.881-16.75-17.168
			c0-10.355,7.088-17.863,18.07-17.863c3.613,0,6.811,0.904,8.479,1.738l-1.389,4.727c-1.461-0.834-3.754-1.6-7.09-1.6
			c-7.715,0-11.885,5.699-11.885,12.721c0,7.783,5.004,12.58,11.676,12.58c3.475,0,5.77-0.904,7.506-1.668L696.447,331.368z"/>
		<path d="M722.234,332.62l-0.486-4.24h-0.209c-1.877,2.641-5.49,5.004-10.287,5.004c-6.811,0-10.285-4.795-10.285-9.66
			c0-8.133,7.229-12.58,20.225-12.512v-0.695c0-2.779-0.764-7.783-7.645-7.783c-3.129,0-6.395,0.973-8.758,2.502l-1.391-4.031
			c2.781-1.807,6.813-2.988,11.051-2.988c10.287,0,12.789,7.02,12.789,13.762v12.58c0,2.918,0.139,5.768,0.557,8.063H722.234z
			 M721.33,315.452c-6.672-0.139-14.248,1.043-14.248,7.576c0,3.961,2.643,5.838,5.77,5.838c4.379,0,7.158-2.779,8.133-5.629
			c0.207-0.627,0.346-1.32,0.346-1.947V315.452z"/>
		<path d="M737.109,308.085c0-3.475-0.07-6.324-0.279-9.105h5.422l0.348,5.561h0.139c1.668-3.197,5.561-6.324,11.121-6.324
			c4.656,0,11.885,2.779,11.885,14.316v20.088h-6.117v-19.393c0-5.42-2.016-9.939-7.783-9.939c-4.031,0-7.16,2.852-8.201,6.256
			c-0.279,0.766-0.418,1.807-0.418,2.85v20.227h-6.115V308.085z"/>
		<path d="M775.684,308.085c0-3.475-0.07-6.324-0.277-9.105h5.42l0.348,5.561h0.139c1.67-3.197,5.561-6.324,11.121-6.324
			c4.656,0,11.885,2.779,11.885,14.316v20.088h-6.115v-19.393c0-5.42-2.016-9.939-7.785-9.939c-4.031,0-7.158,2.852-8.201,6.256
			c-0.277,0.766-0.416,1.807-0.416,2.85v20.227h-6.117V308.085z"/>
		<path d="M817.664,316.911c0.139,8.271,5.422,11.678,11.537,11.678c4.379,0,7.021-0.766,9.314-1.738l1.043,4.379
			c-2.154,0.973-5.838,2.086-11.191,2.086c-10.355,0-16.541-6.813-16.541-16.959c0-10.148,5.977-18.141,15.777-18.141
			c10.982,0,13.9,9.66,13.9,15.846c0,1.252-0.139,2.225-0.209,2.85H817.664z M835.596,312.532c0.07-3.891-1.598-9.938-8.479-9.938
			c-6.186,0-8.896,5.699-9.383,9.938H835.596z"/>
		<path d="M849.08,309.476c0-3.963-0.07-7.367-0.277-10.496h5.352l0.209,6.604h0.277c1.529-4.518,5.213-7.367,9.313-7.367
			c0.695,0,1.182,0.068,1.738,0.207v5.77c-0.625-0.139-1.25-0.209-2.086-0.209c-4.309,0-7.367,3.268-8.201,7.855
			c-0.139,0.834-0.277,1.807-0.277,2.85v17.932h-6.047V309.476z"/>
	</g>
</g>
</svg>
