<?xml version="1.0" encoding="UTF-8" standalone="no"?>
<!-- Generator: Adobe Illustrator 15.1.0, SVG Export Plug-In . SVG Version: 6.00 Build 0)  -->

<svg
   xmlns:dc="http://purl.org/dc/elements/1.1/"
   xmlns:cc="http://creativecommons.org/ns#"
   xmlns:rdf="http://www.w3.org/1999/02/22-rdf-syntax-ns#"
   xmlns:svg="http://www.w3.org/2000/svg"
   xmlns="http://www.w3.org/2000/svg"
   xmlns:sodipodi="http://sodipodi.sourceforge.net/DTD/sodipodi-0.dtd"
   xmlns:inkscape="http://www.inkscape.org/namespaces/inkscape"
   version="1.1"
   id="Layer_1"
   x="0px"
   y="0px"
   width="1000px"
   height="1000px"
   viewBox="0 0 1000 1000"
   enable-background="new 0 0 1000 1000"
   xml:space="preserve"
   sodipodi:docname="main icon design.svg"
   inkscape:version="0.92.1 r15371"><metadata
     id="metadata51"><rdf:RDF><cc:Work
         rdf:about=""><dc:format>image/svg+xml</dc:format><dc:type
           rdf:resource="http://purl.org/dc/dcmitype/StillImage" /><dc:title></dc:title></cc:Work></rdf:RDF></metadata><defs
     id="defs49" /><sodipodi:namedview
     pagecolor="#ffffff"
     bordercolor="#666666"
     borderopacity="1"
     objecttolerance="10"
     gridtolerance="10"
     guidetolerance="10"
     inkscape:pageopacity="0"
     inkscape:pageshadow="2"
     inkscape:window-width="1256"
     inkscape:window-height="812"
     id="namedview47"
     showgrid="false"
     inkscape:zoom="0.3337544"
     inkscape:cx="792.69528"
     inkscape:cy="222.14752"
     inkscape:window-x="133"
     inkscape:window-y="50"
     inkscape:window-maximized="0"
     inkscape:current-layer="Layer_1" /><rect
     style="fill:#008000;fill-opacity:1;fill-rule:evenodd;stroke:none;stroke-width:6.79936409;stroke-linecap:square;stroke-linejoin:miter;stroke-miterlimit:4;stroke-dasharray:none;stroke-dashoffset:0;stroke-opacity:1;paint-order:fill markers stroke"
     id="rect930"
     width="1000"
     height="1000"
     x="0"
     y="0" /><path
     enable-background="new    "
     d="M 1000,667.317 V 1000 H 638.195 L 343.81,677 343.8,323 h 312.4 z"
     id="path4"
     inkscape:connector-curvature="0"
     style="fill:#006d00"
     sodipodi:nodetypes="ccccccc" /><g
     id="g44"><g
       id="g24"><g
         id="g8"><polygon
           fill="#FFFFFF"
           points="442.934,677 343.806,677 343.806,577.868 373.092,577.868 373.092,647.713 442.934,647.713         "
           id="polygon6" /></g><g
         id="g22"><g
           id="g12"><polygon
             fill="#FFFFFF"
             points="656.195,677 557.064,677 557.064,647.713 626.908,647.713 626.908,577.868 656.195,577.868           "
             id="polygon10" /></g><g
           id="g16"><polygon
             fill="#FFFFFF"
             points="656.195,422.132 626.908,422.132 626.908,352.287 557.064,352.287 557.064,323 656.195,323           "
             id="polygon14" /></g><g
           id="g20"><polygon
             fill="#FFFFFF"
             points="373.092,422.132 343.805,422.132 343.805,323 442.936,323 442.936,352.287 373.092,352.287           "
             id="polygon18" /></g></g></g><rect
       x="415.653"
       y="405.451"
       fill="#FFFFFF"
       width="168.69"
       height="12.678"
       id="rect26" /><rect
       x="415.653"
       y="464.258"
       fill="#FFFFFF"
       width="168.69"
       height="12.678"
       id="rect28" /><g
       id="g38"><polygon
         fill="#FFFFFF"
         points="557.257,599.521 582.509,591.381 558.025,572.979   "
         id="polygon30" /><g
         id="g36"><path
           fill="#FFFFFF"
           d="M649.454,502.309l5.584-7.428c2.998-3.989-0.052-11.343-6.813-16.424     c-6.76-5.082-14.672-5.967-17.67-1.979l-5.583,7.433L649.454,502.309z"
           id="path32" /><rect
           x="553.906"
           y="522.297"
           transform="matrix(0.6008 -0.7994 0.7994 0.6008 -188.7554 697.2349)"
           fill="#FFFFFF"
           width="99.656"
           height="30.628"
           id="rect34" /></g></g><rect
       x="415.653"
       y="581.872"
       fill="#FFFFFF"
       width="79.347"
       height="12.676"
       id="rect40" /><rect
       x="415.653"
       y="523.063"
       fill="#FFFFFF"
       width="136.411"
       height="12.683"
       id="rect42" /></g></svg>